<?xml version="1.0" encoding="utf-8"?>
<!-- Generator: Adobe Illustrator 21.1.0, SVG Export Plug-In . SVG Version: 6.00 Build 0)  -->
<svg version="1.1"
	 id="Layer_1" xmlns:cc="http://creativecommons.org/ns#" xmlns:dc="http://purl.org/dc/elements/1.1/" xmlns:inkscape="http://www.inkscape.org/namespaces/inkscape" xmlns:rdf="http://www.w3.org/1999/02/22-rdf-syntax-ns#" xmlns:sodipodi="http://sodipodi.sourceforge.net/DTD/sodipodi-0.dtd" xmlns:svg="http://www.w3.org/2000/svg"
	 xmlns="http://www.w3.org/2000/svg" xmlns:xlink="http://www.w3.org/1999/xlink" x="0px" y="0px" viewBox="0 0 64 84"
	 style="enable-background:new 0 0 64 84;" xml:space="preserve">
<g transform="translate(0,-952.36218)">
	<path d="M32,952.4c-3.7,0-6.9,2.5-7.8,6H16v10h32v-10h-8.2C38.9,954.9,35.7,952.4,32,952.4z M0,962.4v74h64v-74H50v8H14v-8H0z
		 M14,988.4h13c1.5,0,3,0.7,4,1.7v24.3c-1-1.2-2.6-2-4-2H14V988.4z M37,988.4h13v24H37c-1.4,0-3,0.8-4,2v-24.3
		C34,989.1,35.5,988.4,37,988.4z M18,993.4c-0.6,0-1,0.4-1,1s0.4,1,1,1h8c0.6,0,1-0.4,1-1s-0.4-1-1-1H18z M38,993.4
		c-0.6,0-1,0.4-1,1s0.4,1,1,1h8c0.6,0,1-0.4,1-1s-0.4-1-1-1H38z M18,999.4c-0.6,0-1,0.4-1,1s0.4,1,1,1h8c0.6,0,1-0.4,1-1s-0.4-1-1-1
		H18z M38,999.4c-0.6,0-1,0.4-1,1s0.4,1,1,1h8c0.6,0,1-0.4,1-1s-0.4-1-1-1H38z M18,1005.4c-0.6,0-1,0.4-1,1s0.4,1,1,1h8
		c0.6,0,1-0.4,1-1s-0.4-1-1-1H18z M38,1005.4c-0.6,0-1,0.4-1,1s0.4,1,1,1h8c0.6,0,1-0.4,1-1s-0.4-1-1-1H38z"/>
</g>
</svg>
