<?xml version="1.0" encoding="utf-8"?>
<!-- Generator: Adobe Illustrator 21.1.0, SVG Export Plug-In . SVG Version: 6.00 Build 0)  -->
<svg version="1.1" id="Layer_1" xmlns="http://www.w3.org/2000/svg" xmlns:xlink="http://www.w3.org/1999/xlink" x="0px" y="0px"
	 viewBox="0 0 92.6 95" style="enable-background:new 0 0 92.6 95;" xml:space="preserve">
<g>
	<rect x="8.9" y="42.5" width="16.5" height="12.9"/>
	<rect x="28.4" y="42.5" width="16.5" height="12.9"/>
	<rect x="47.9" y="42.5" width="16.5" height="12.9"/>
	<rect x="67.4" y="42.5" width="16.5" height="12.9"/>
	<rect x="8.9" y="58.1" width="16.5" height="12.9"/>
	<rect x="28.4" y="58.1" width="16.5" height="12.9"/>
	<rect x="47.9" y="58.1" width="16.5" height="12.9"/>
	<rect x="67.4" y="58.1" width="16.5" height="12.9"/>
	<rect x="8.9" y="73.8" width="16.5" height="12.9"/>
	<rect x="28.4" y="73.8" width="16.5" height="12.9"/>
	<rect x="47.9" y="73.8" width="16.5" height="12.9"/>
	<rect x="67.4" y="73.8" width="16.5" height="12.9"/>
	<path d="M78.8,8.3v11.9H65V8.3H27.7v11.9H13.9V8.3H0V95h92.6V8.3H78.8z M88,90.3H4.8V39H88V90.3z"/>
	<rect x="17.5" width="6.7" height="16.7"/>
	<rect x="68.6" width="6.7" height="16.7"/>
</g>
</svg>
