<?xml version="1.0" encoding="utf-8"?>
<!-- Generator: Adobe Illustrator 21.1.0, SVG Export Plug-In . SVG Version: 6.00 Build 0)  -->
<svg version="1.1" id="Layer_1" xmlns="http://www.w3.org/2000/svg" xmlns:xlink="http://www.w3.org/1999/xlink" x="0px" y="0px"
	 viewBox="0 0 512 351.9" style="enable-background:new 0 0 512 351.9;" xml:space="preserve">
<style type="text/css">
	.st0{fill:#FFFFFF;}
</style>
<g>
	<g>
		<path class="st0" d="M324.5,276.5c0,0-83.7-21.5-95.5-44.9c-5.4-10.7-0.1-24.4,5.3-33.8c2.5-3.3,4.9-6.8,7.2-10.5l0,0
			c14-22.3,24.6-51.7,25.7-88.1c1.6-54.7-40.7-99-90.9-99.2l0,0h-0.1L176,0l0,0c-50.2,0.2-92.5,44.5-90.9,99.2
			c1.1,36.3,11.8,65.7,25.7,88.1l0,0l0,0c2.3,3.7,4.7,7.2,7.2,10.5c5.4,9.4,10.7,23.1,5.3,33.8c-11.8,23.4-95.5,44.9-95.5,44.9
			C11.6,281.8,0,297.1,0,315v36.9h352.2V315C352.2,297.1,340.6,281.8,324.5,276.5z"/>
	</g>
	<g>
		<path class="st0" d="M491.8,297.1L491.8,297.1c-0.9-0.3-61-15.6-69.5-32.7c-4-7.8-0.1-17.7,3.9-24.6c1.8-2.4,3.5-4.9,5.2-7.6l0,0
			c10.2-16.2,17.9-37.6,18.7-64c1.2-39.7-29.6-72-66.2-72.1l0,0c0,0,0,0-0.1,0h-0.1l0,0c-36.6,0.1-67.4,32.4-66.2,72.1
			c0.8,26.4,8.6,47.8,18.7,64l0,0l0,0c1.7,2.7,3.4,5.2,5.2,7.6c0.3,0.5,0.6,1,0.8,1.5c29.6,12.3,49.2,41.2,49.2,73.7v36.9H512v-26.8
			C512,312,503.5,301,491.8,297.1z"/>
	</g>
</g>
</svg>
