<?xml version="1.0" encoding="utf-8"?>
<!-- Generator: Adobe Illustrator 21.1.0, SVG Export Plug-In . SVG Version: 6.00 Build 0)  -->
<svg version="1.1" id="Layer_1" xmlns="http://www.w3.org/2000/svg" xmlns:xlink="http://www.w3.org/1999/xlink" x="0px" y="0px"
	 viewBox="0 0 78.4 94.8" style="enable-background:new 0 0 78.4 94.8;" xml:space="preserve">
<path d="M66.4,60c6.6,0,12-5.4,12-12c0-6.6-5.4-12-12-12c-6.6,0-12,5.4-12,12C54.4,54.6,59.8,60,66.4,60z M66.4,42c3.3,0,6,2.7,6,6
	c0,3.3-2.7,6-6,6c-3.3,0-6-2.7-6-6S63.1,42,66.4,42z M12,24c6.6,0,12-5.4,12-12c0-6.6-5.4-12-12-12C5.4,0,0,5.4,0,12
	C0,18.6,5.4,24,12,24z M12,6c3.3,0,6,2.7,6,6c0,3.3-2.7,6-6,6c-3.3,0-6-2.7-6-6S8.7,6,12,6z M12,70.8c-6.6,0-12,5.4-12,12
	c0,6.6,5.4,12,12,12c6.6,0,12-5.4,12-12C24,76.2,18.6,70.8,12,70.8z M12,88.8c-3.3,0-6-2.7-6-6c0-3.3,2.7-6,6-6c3.3,0,6,2.7,6,6
	C18,86.1,15.3,88.8,12,88.8z M25,72c-0.1,0.1-0.2,0.2-0.3,0.3c1.2,1.5,2.2,3.2,2.9,5.1c0.3-0.1,0.5-0.2,0.8-0.4l24.8-16.5
	c-1.4-1.5-2.5-3.1-3.3-5L25,72z M22.9,24.3c0.2,0.4,0.5,0.7,0.9,0.9l25.7,15.9c0.8-1.9,1.9-3.6,3.2-5.1L26.9,20.1
	c-0.2-0.1-0.3-0.2-0.5-0.2C25.5,21.5,24.3,23,22.9,24.3z"/>
</svg>
