<?xml version="1.0" encoding="utf-8"?>
<!-- Generator: Adobe Illustrator 21.1.0, SVG Export Plug-In . SVG Version: 6.00 Build 0)  -->
<svg version="1.1" id="Layer_1" xmlns="http://www.w3.org/2000/svg" xmlns:xlink="http://www.w3.org/1999/xlink" x="0px" y="0px"
	 viewBox="0 0 306.7 613.9" style="enable-background:new 0 0 306.7 613.9;" xml:space="preserve">
<style type="text/css">
	.st0{fill:#3B5998;}
</style>
<path class="st0" d="M306.7,204.8c-4.1,34.5-8.2,68-12.3,102.2c-29.9,0-59.7,0-90,0c0,102.6,0,204.6,0,306.9c-41,0-81.6,0-122.7,0
	c0-102,0-204,0-306.5c-27.5,0-54.4,0-81.7,0c0-34.2,0-67.9,0-102.5c1.9,0,3.8,0,5.7,0c23,0,46,0,69,0c6.8,0,6.8,0,6.8-6.6
	c0.1-22.5-0.6-45,0.5-67.5c1.8-36,12.9-68.6,39.4-94.5c20.3-19.8,45.3-30.1,73-33.9c11.2-1.5,22.6-2,33.9-2.2
	c24.2-0.3,48.3-0.1,72.5-0.1c1.8,0,3.6,0,5.7,0c0,34.2,0,67.9,0,102.2c-2.1,0-4.1,0-6,0c-20.3,0.3-40.6,0.5-61,0.8
	c-1.3,0-2.7,0.2-4,0.4c-22.2,3.5-30.2,11.8-30.9,34.3c-0.7,21.5-0.2,43-0.3,64.5c0,0.6,0.2,1.3,0.4,2.5
	C238.6,204.8,272.4,204.8,306.7,204.8z"/>
</svg>
