<svg xmlns="http://www.w3.org/2000/svg" xmlns:xlink="http://www.w3.org/1999/xlink" version="1.1" x="0px" y="0px" viewBox="0 0 100 125" enable-background="new 0 0 100 100" xml:space="preserve"><g><g><g><path fill="none" d="M50,26.588c-12.909,0-23.412,10.503-23.412,23.412S37.091,73.412,50,73.412     c12.909,0,23.412-10.503,23.412-23.412S62.909,26.588,50,26.588z M50,70.744c-11.438,0-20.744-9.306-20.744-20.744     c0-7.632,4.147-14.311,10.302-17.913c-0.642,2.945,0.049,6.95-1.426,8.765c-0.275,0.338-0.644,0.626-0.769,1.044     c-0.233,0.785,0.485,1.488,0.973,2.146c0.768,1.038,1.044,2.424,0.731,3.676c0.998,0.33,2.103-0.894,1.672-1.853     c1.323,0.179,0.387,2.419,1.124,3.531c0.375,0.565,1.121,0.713,1.777,0.884c2.837,0.738,5.164,2.71,7.385,4.624     c-1.4,0.082-1.613,2.199-0.824,3.358c0.79,1.159,2.114,1.979,2.54,3.316c0.336,1.054,0.032,2.192-0.258,3.26     c-0.29,1.068-0.563,2.223-0.17,3.257c0.393,1.034,1.747,1.761,2.646,1.117c-0.624-0.587-0.509-1.659-0.001-2.349     c0.508-0.69,1.297-1.104,2.033-1.541c3.433-2.038,6.256-5.091,8.02-8.673c0.153-0.31,0.3-0.635,0.31-0.981     c0.04-1.465-2.003-1.8-3.469-1.815c-1.98-0.02-4.163-0.517-5.302-2.137c-0.382-0.543-0.644-1.207-1.201-1.569     c-1.8-1.169-4.854,1.698-6.033-0.096c-0.276-0.42-0.298-0.983-0.628-1.362c-0.434-0.498-1.193-0.479-1.849-0.562     c-0.656-0.084-1.43-0.518-1.331-1.172c0.042-0.275,0.239-0.502,0.458-0.673c0.857-0.665,2.045-0.645,3.126-0.557     c1.081,0.088,2.241,0.199,3.183-0.338c0.942-0.537,1.394-2.024,0.552-2.707c2.713-0.268,5.28-1.765,6.85-3.993     c1.368,0.286,2.439-1.829,1.398-2.762c-0.81-0.726-2.055-0.462-3.142-0.415c-1.087,0.048-2.485-0.551-2.341-1.63     c-1.347,0.032-2.686,0.384-3.875,1.019c-0.8-0.842,0.467-2.071,1.564-2.453c1.097-0.381,2.512-1.259,2.01-2.306     c-0.043-0.09-0.102-0.168-0.166-0.243C64.092,32.186,70.744,40.331,70.744,50C70.744,61.438,61.438,70.744,50,70.744z"/><path d="M55.125,29.898c0.065,0.075,0.124,0.153,0.166,0.243c0.502,1.047-0.914,1.925-2.01,2.306     c-1.097,0.381-2.364,1.611-1.564,2.453c1.189-0.635,2.528-0.987,3.875-1.019c-0.144,1.078,1.255,1.677,2.341,1.63     c1.087-0.048,2.332-0.312,3.142,0.415c1.041,0.933-0.03,3.048-1.398,2.762c-1.57,2.229-4.137,3.725-6.85,3.993     c0.842,0.683,0.39,2.17-0.552,2.707c-0.942,0.537-2.102,0.427-3.183,0.338c-1.081-0.089-2.269-0.108-3.126,0.557     c-0.22,0.17-0.416,0.398-0.458,0.673c-0.099,0.654,0.675,1.088,1.331,1.172c0.656,0.084,1.415,0.064,1.849,0.562     c0.33,0.379,0.352,0.942,0.628,1.362c1.179,1.794,4.233-1.073,6.033,0.096c0.557,0.362,0.819,1.025,1.201,1.569     c1.139,1.621,3.321,2.117,5.302,2.137c1.466,0.015,3.509,0.35,3.469,1.815c-0.009,0.346-0.157,0.671-0.31,0.981     c-1.764,3.582-4.587,6.635-8.02,8.673c-0.737,0.438-1.526,0.851-2.033,1.541c-0.508,0.69-0.623,1.762,0.001,2.349     c-0.899,0.644-2.253-0.083-2.646-1.117c-0.392-1.034-0.12-2.189,0.17-3.257c0.29-1.067,0.594-2.206,0.258-3.26     c-0.426-1.336-1.75-2.156-2.54-3.316c-0.79-1.159-0.576-3.276,0.824-3.358c-2.22-1.914-4.547-3.886-7.385-4.624     c-0.656-0.171-1.402-0.318-1.777-0.884c-0.738-1.113,0.199-3.352-1.124-3.531c0.43,0.959-0.675,2.183-1.672,1.853     c0.313-1.252,0.037-2.639-0.731-3.676c-0.487-0.658-1.206-1.361-0.973-2.146c0.124-0.418,0.494-0.706,0.769-1.044     c1.475-1.815,0.784-5.82,1.426-8.765C33.403,35.689,29.256,42.368,29.256,50c0,11.438,9.306,20.744,20.744,20.744     c11.438,0,20.744-9.306,20.744-20.744C70.744,40.331,64.092,32.186,55.125,29.898z"/><path d="M50,5C25.147,5,5,25.147,5,50s20.147,45,45,45s45-20.147,45-45S74.853,5,50,5z M50,73.412     c-12.909,0-23.412-10.503-23.412-23.412S37.091,26.588,50,26.588c12.909,0,23.412,10.503,23.412,23.412S62.909,73.412,50,73.412z     "/></g></g></g><text x="0" y="115" fill="#000000" font-size="5px" font-weight="bold" font-family="'Helvetica Neue', Helvetica, Arial-Unicode, Arial, Sans-serif">Created by Vladimir Belochkin</text><text x="0" y="120" fill="#000000" font-size="5px" font-weight="bold" font-family="'Helvetica Neue', Helvetica, Arial-Unicode, Arial, Sans-serif">from the Noun Project</text></svg>