<?xml version="1.0" encoding="utf-8"?>
<!-- Generator: Adobe Illustrator 21.1.0, SVG Export Plug-In . SVG Version: 6.00 Build 0)  -->
<svg version="1.1" id="Layer_1" xmlns="http://www.w3.org/2000/svg" xmlns:xlink="http://www.w3.org/1999/xlink" x="0px" y="0px"
	 viewBox="0 0 50.2 63.1" style="enable-background:new 0 0 50.2 63.1;" xml:space="preserve">
<style type="text/css">
	.st0{fill:#FFFFFF;}
</style>
<path class="st0" d="M45.7,10.8C41,3.9,33.5,0,25.1,0S9.2,3.9,4.5,10.8c-4.7,6.8-5.8,15.4-2.9,23c0.8,2,2,4.1,3.6,6l19.9,23.3
	l19.8-23.3c1.6-1.9,2.9-3.9,3.6-6C51.5,26.2,50.4,17.6,45.7,10.8z M25.1,33c-5.6,0-10.2-4.5-10.2-10s4.6-10,10.2-10
	s10.2,4.5,10.2,10S30.7,33,25.1,33z"/>
</svg>
