<?xml version="1.0" encoding="utf-8"?>
<!-- Generator: Adobe Illustrator 21.1.0, SVG Export Plug-In . SVG Version: 6.00 Build 0)  -->
<svg version="1.1" id="Layer_1" xmlns="http://www.w3.org/2000/svg" xmlns:xlink="http://www.w3.org/1999/xlink" x="0px" y="0px"
	 viewBox="0 0 66 70" style="enable-background:new 0 0 66 70;" xml:space="preserve">
<style type="text/css">
	.st0{fill:#9BA3AF;}
</style>
<title>65 all</title>
<rect x="21" y="28" class="st0" width="8" height="27"/>
<rect x="37" y="28" class="st0" width="8" height="27"/>
<path class="st0" d="M47,4c0-2.2-1.8-4-4-4H23c-2.2,0-4,1.8-4,4v7H0v8h7v47c0,2.2,1.8,4,4,4h44c2.2,0,4-1.8,4-4V19h7v-8H47V4z M27,8
	h12v3H27V8z M51,19v43H15V19H51z"/>
</svg>
