<?xml version="1.0" encoding="utf-8"?>
<!-- Generator: Adobe Illustrator 21.1.0, SVG Export Plug-In . SVG Version: 6.00 Build 0)  -->
<svg version="1.1"
	 id="Layer_1" xmlns:cc="http://creativecommons.org/ns#" xmlns:dc="http://purl.org/dc/elements/1.1/" xmlns:inkscape="http://www.inkscape.org/namespaces/inkscape" xmlns:rdf="http://www.w3.org/1999/02/22-rdf-syntax-ns#" xmlns:sodipodi="http://sodipodi.sourceforge.net/DTD/sodipodi-0.dtd" xmlns:svg="http://www.w3.org/2000/svg"
	 xmlns="http://www.w3.org/2000/svg" xmlns:xlink="http://www.w3.org/1999/xlink" x="0px" y="0px" viewBox="0 0 88 72"
	 style="enable-background:new 0 0 88 72;" xml:space="preserve">
<style type="text/css">
	.st0{fill:#92929E;}
</style>
<g>
	<g transform="translate(0,-952.36218)">
		<path class="st0" d="M2,952.4c-1,0-2,1-2,2v68c0,1,1,2,2,2h84c1,0,2-1,2-2v-68c0-1-0.8-1.9-1.8-2c-0.1,0-0.1,0-0.2,0H2z M4,956.4
			h80v12H4V956.4z M23,959.4c-1.7,0-3,1.3-3,3s1.3,3,3,3s3-1.3,3-3S24.7,959.4,23,959.4z M65,959.4c-1.7,0-3,1.3-3,3s1.3,3,3,3
			s3-1.3,3-3S66.7,959.4,65,959.4z M4,972.4h17v9H4V972.4z M25,972.4h17v9H25V972.4z M46,972.4h17v9H46V972.4z M67,972.4h17v9H67
			V972.4z M4,985.4h17v9H4V985.4z M25,985.4h17v9H25V985.4z M46,985.4h17v0.2c-5.4,0.7-10.1,4.1-12.4,8.8H46V985.4z M67,985.4h17v9
			h-4.6c-2.3-4.7-6.9-8.2-12.4-8.8V985.4z M65,989.4c6.7,0,12,5.3,12,12c0,6.7-5.3,12-12,12s-12-5.3-12-12
			C53,994.7,58.3,989.4,65,989.4z M64.8,992.3c-1,0.1-1.8,1-1.8,2v5h-5c-0.1,0-0.1,0-0.2,0c-1.1,0.1-2,1-1.9,2.1
			c0.1,1.1,1,2,2.1,1.9h5v5c0,1.1,0.9,2,2,2c1.1,0,2-0.9,2-2c0,0,0,0,0-0.1v-5h5c1.1,0,2-0.9,2-2c0-1.1-0.9-2-2-2c0,0,0,0-0.1,0h-5
			v-5c0-1.1-0.9-2-2-2C65,992.3,64.9,992.3,64.8,992.3z M4,998.4h17v9H4V998.4z M25,998.4h17v9H25V998.4z M46,998.4h3.3
			c-0.2,1-0.3,2-0.3,3c0,2.1,0.4,4.1,1.2,6H46V998.4z M80.7,998.4H84v9h-4.2c0.8-1.9,1.2-3.9,1.2-6C81,1000.3,80.9,999.3,80.7,998.4
			z M4,1011.4h17v9H4V1011.4z M25,1011.4h17v9H25V1011.4z M46,1011.4h6.5c2.5,3.2,6.3,5.3,10.5,5.8v3.2H46V1011.4z M77.5,1011.4H84
			v9H67v-3.2C71.2,1016.7,74.9,1014.5,77.5,1011.4z"/>
	</g>
	<rect class="st0" width="2.7" height="2.7"/>
	<rect x="86" class="st0" width="2" height="2"/>
	<rect x="86" y="70" class="st0" width="2" height="2"/>
	<rect y="69.1" class="st0" width="1.4" height="2.9"/>
</g>
</svg>
