<?xml version="1.0" encoding="utf-8"?>
<!-- Generator: Adobe Illustrator 21.1.0, SVG Export Plug-In . SVG Version: 6.00 Build 0)  -->
<svg version="1.1"
	 id="Layer_1" xmlns:cc="http://creativecommons.org/ns#" xmlns:dc="http://purl.org/dc/elements/1.1/" xmlns:inkscape="http://www.inkscape.org/namespaces/inkscape" xmlns:rdf="http://www.w3.org/1999/02/22-rdf-syntax-ns#" xmlns:sodipodi="http://sodipodi.sourceforge.net/DTD/sodipodi-0.dtd" xmlns:svg="http://www.w3.org/2000/svg"
	 xmlns="http://www.w3.org/2000/svg" xmlns:xlink="http://www.w3.org/1999/xlink" x="0px" y="0px" viewBox="0 0 88 88"
	 style="enable-background:new 0 0 88 88;" xml:space="preserve">
<style type="text/css">
	.st0{fill:#606060;}
</style>
<g transform="translate(0,-952.36218)">
	<path class="st0" d="M88,996.4c0-24.3-19.7-44-44-44c-24.3,0-44,19.7-44,44s19.7,44,44,44C68.3,1040.4,88,1020.6,88,996.4z
		 M84,996.4c0,22.1-17.9,40-40,40s-40-17.9-40-40s17.9-40,40-40S84,974.2,84,996.4z M68,1006.2c0-0.4-0.2-0.9-0.5-1.2l-22-24
		c-0.7-0.8-2-0.9-2.8-0.1c-0.1,0-0.1,0.1-0.1,0.1l-22,24c-0.7,0.8-0.7,2.1,0.1,2.8s2.1,0.7,2.8-0.1c0,0,0,0,0,0L44,985.3l20.5,22.4
		c0.7,0.8,2,0.9,2.8,0.2C67.8,1007.5,68.1,1006.8,68,1006.2z"/>
</g>
</svg>
