<?xml version="1.0" encoding="utf-8"?>
<!-- Generator: Adobe Illustrator 21.1.0, SVG Export Plug-In . SVG Version: 6.00 Build 0)  -->
<svg version="1.1" id="Layer_1" xmlns="http://www.w3.org/2000/svg" xmlns:xlink="http://www.w3.org/1999/xlink" x="0px" y="0px"
	 viewBox="0 0 60 60" style="enable-background:new 0 0 60 60;" xml:space="preserve">
<style type="text/css">
	.st0{fill:#FFFFFF;}
</style>
<g>
	<path class="st0" d="M59,0H1C0.4,0,0,0.4,0,1v58c0,0.6,0.4,1,1,1h58c0.6,0,1-0.4,1-1V1C60,0.4,59.6,0,59,0z M58,2v6H2V2H58z M2,58
		V10h56v48H2z"/>
	<rect x="4" y="4" class="st0" width="2" height="2"/>
	<rect x="8" y="4" class="st0" width="2" height="2"/>
	<rect x="12" y="4" class="st0" width="2" height="2"/>
	<rect x="54" y="4" class="st0" width="2" height="2"/>
	<path class="st0" d="M55,12H5c-0.6,0-1,0.4-1,1v42c0,0.6,0.4,1,1,1h50c0.6,0,1-0.4,1-1V13C56,12.4,55.6,12,55,12z M54,54H6V14h48
		V54z"/>
	<rect x="8" y="16" class="st0" width="8" height="2"/>
	<rect x="18" y="16" class="st0" width="2" height="2"/>
	<rect x="22" y="16" class="st0" width="2" height="2"/>
	<path class="st0" d="M9,34h42c0.6,0,1-0.4,1-1V21c0-0.6-0.4-1-1-1H9c-0.6,0-1,0.4-1,1v12C8,33.6,8.4,34,9,34z M10,22h40v10H10V22z"
		/>
	<path class="st0" d="M9,48h10c0.6,0,1-0.4,1-1V37c0-0.6-0.4-1-1-1H9c-0.6,0-1,0.4-1,1v10C8,47.6,8.4,48,9,48z M10,38h8v8h-8V38z"/>
	<path class="st0" d="M51,36H41c-0.6,0-1,0.4-1,1v10c0,0.6,0.4,1,1,1h10c0.6,0,1-0.4,1-1V37C52,36.4,51.6,36,51,36z M50,46h-8v-8h8
		V46z"/>
	<path class="st0" d="M35,36H25c-0.6,0-1,0.4-1,1v10c0,0.6,0.4,1,1,1h10c0.6,0,1-0.4,1-1V37C36,36.4,35.6,36,35,36z M34,46h-8v-8h8
		V46z"/>
	<rect x="9" y="50" class="st0" width="2" height="2"/>
	<rect x="13" y="50" class="st0" width="2" height="2"/>
	<rect x="25" y="50" class="st0" width="2" height="2"/>
	<rect x="29" y="50" class="st0" width="2" height="2"/>
	<rect x="41" y="50" class="st0" width="2" height="2"/>
	<rect x="45" y="50" class="st0" width="2" height="2"/>
</g>
</svg>
