<?xml version="1.0" encoding="utf-8"?>
<!-- Generator: Adobe Illustrator 21.1.0, SVG Export Plug-In . SVG Version: 6.00 Build 0)  -->
<svg version="1.1" id="Layer_1" xmlns="http://www.w3.org/2000/svg" xmlns:xlink="http://www.w3.org/1999/xlink" x="0px" y="0px"
	 viewBox="0 0 98 97.4" style="enable-background:new 0 0 98 97.4;" xml:space="preserve">
<style type="text/css">
	.st0{display:none;}
	.st1{display:inline;}
	.st2{fill:#FFFFFF;}
</style>
<g class="st0">
	<polygon class="st1" points="75.2,45.5 35.2,45.5 55.2,25.5 50.6,20.9 22.8,48.7 50.6,76.5 55.2,71.9 35.2,51.9 75.2,51.9 	"/>
	<path class="st1" d="M49,20.1c-13,0-23.5,10.5-23.5,23.5C25.5,62.3,49,77.3,49,77.3s23.5-15,23.5-33.7C72.5,30.6,62,20.1,49,20.1z
		 M49,52.6c-5.2,0-9.4-4.2-9.4-9.4s4.2-9.4,9.4-9.4s9.4,4.2,9.4,9.4C58.4,48.3,54.2,52.6,49,52.6z"/>
	<path class="st1" d="M73.7,28.9H59.1L49,18.8c0,0-5.8,5.8-10.1,10.1H24.3c-2.7,0-4.8,2.2-4.8,4.8v40c0,2.7,2.2,4.8,4.8,4.8h49.4
		c2.7,0,4.8-2.2,4.8-4.8v-40C78.5,31.1,76.4,28.9,73.7,28.9z M49,38.2c2.6,0,5.8,2,5.8,7.4c0,4.4-2.1,8.5-5.8,8.5s-5.8-4.1-5.8-8.5
		C43.2,40.2,46.4,38.2,49,38.2z M60.8,66.7H49H37.2v-1.8c0-1.8,0.8-8.1,10.1-8.1H49h1.7c9.3,0,10.1,6.3,10.1,8.1
		C60.8,64.9,60.8,66.7,60.8,66.7z"/>
	<path class="st1" d="M73.7,19.7H24.3c-2.7,0-4.8,2.2-4.8,4.8v48.3c0,2.7,2.2,4.8,4.8,4.8H49V55.4h-6.4v-9.6H49v-6.5
		c0-5.3,4.3-9.6,9.6-9.6h10v9.6h-6.8c-1.7,0-3.1,1.4-3.1,3.1v3.4h10v9.6h-10v22.3h15.1c2.7,0,4.8-2.2,4.8-4.8V24.6
		C78.5,21.9,76.4,19.7,73.7,19.7z"/>
	<g class="st1">
		<path d="M66.9,33.8c-8.2,0-14.9,6.7-14.9,14.9s6.7,14.9,14.9,14.9s14.9-6.7,14.9-14.9S75.1,33.8,66.9,33.8z M66.9,58.2
			c-5.2,0-9.5-4.3-9.5-9.5s4.3-9.5,9.5-9.5c5.2,0,9.5,4.3,9.5,9.5S72.1,58.2,66.9,58.2z"/>
		<path d="M31.1,33.8c-8.2,0-14.9,6.7-14.9,14.9s6.7,14.9,14.9,14.9S46,56.9,46,48.7S39.3,33.8,31.1,33.8z"/>
	</g>
	<path class="st1" d="M68.7,66.5c-1.8,1.6-4.2,2.6-6.8,2.6s-4.9-0.9-6.7-2.5c-0.2-0.1-0.3-0.3-0.5-0.5c-1.1-1.3-1.6-3-1.6-4.7V46.1
		h14.3V34.4H53.1V18H42.6l0,0c0,7.4-6,16.4-13.3,16.4l0,0v11.8h8.9v17.2c0,4.3,1.8,8.5,5,11.3c3.4,3,7.8,4.7,12.7,4.7
		s9.4-1.8,12.8-4.8V66.5z"/>
	<polygon class="st1" points="72.5,29.8 67.9,25.2 49,44.1 30.1,25.2 25.5,29.8 44.4,48.7 25.5,67.6 30.1,72.2 49,53.3 67.9,72.2 
		72.5,67.6 53.6,48.7 	"/>
	<path class="st1" d="M49,0C22.1,0,0.3,21.8,0.3,48.7S22.1,97.4,49,97.4s48.7-21.8,48.7-48.7S75.9,0,49,0z M43.7,73.7H25.9
		c-1,0-1.8-0.8-1.8-1.8V54c0-1,0.8-1.8,1.8-1.8s1.8,0.8,1.8,1.8v15.9h15.9c1,0,1.8,0.8,1.8,1.8S44.7,73.7,43.7,73.7z M74,43.4
		c0,1-0.8,1.8-1.8,1.8s-1.8-0.8-1.8-1.8v-16H54.3c-1,0-1.8-0.8-1.8-1.8s0.8-1.8,1.8-1.8h17.8c1,0,1.8,0.8,1.8,1.8L74,43.4L74,43.4z"
		/>
	<g class="st1">
		<path d="M49,0C22.1,0,0.3,21.8,0.3,48.7S22.1,97.4,49,97.4s48.7-21.8,48.7-48.7S75.9,0,49,0z M70.5,57.2c0,7.1-5.8,12.9-12.9,12.9
			H40.5c-7.1,0-12.9-5.8-12.9-12.9v-17c0-7.1,5.8-12.9,12.9-12.9h17.1c7.1,0,12.9,5.8,12.9,12.9V57.2z"/>
		<path d="M31.2,40.2v17.1c0,5.1,4.1,9.2,9.2,9.2h6.7V30.9h-6.7C35.4,30.9,31.2,35.1,31.2,40.2z"/>
		<path d="M50.8,66.5h6.7c5.1,0,9.2-4.1,9.2-9.2v-6.7H50.8V66.5z"/>
		<path d="M57.5,30.9h-6.7v15.9h15.9v-6.7C66.8,35.1,62.6,30.9,57.5,30.9z"/>
	</g>
	<g class="st1">
		<path d="M35,40.8c-4.4,0-7.9,3.6-7.9,7.9c0,4.4,3.6,7.9,7.9,7.9c4.9,0,9.6-5,11.8-7.9C45,46.4,40.3,40.8,35,40.8z"/>
		<path d="M63,40.8c-5.3,0-10,5.6-11.8,7.9c1.7,2.3,6.5,7.9,11.8,7.9c4.4,0,7.9-3.6,7.9-7.9C70.9,44.3,67.4,40.8,63,40.8z"/>
		<path d="M49,0C22.1,0,0.3,21.8,0.3,48.7S22.1,97.4,49,97.4s48.7-21.8,48.7-48.7S75.9,0,49,0z M63,60.3c-6.3,0-11.5-5.4-14-8.5
			c-2.5,3.1-7.7,8.5-14,8.5c-6.4,0-11.6-5.2-11.6-11.6S28.6,37.1,35,37.1c6.3,0,11.5,5.4,14,8.5c2.5-3.1,7.7-8.5,14-8.5
			c6.4,0,11.6,5.2,11.6,11.6S69.4,60.3,63,60.3z"/>
	</g>
	<g class="st1">
		<path d="M42.8,73.6H24.1V54.9c0-1.2-1-2.2-2.2-2.2s-2.2,1-2.2,2.2v20.8c0,1.2,1,2.2,2.2,2.2h20.8c1.2,0,2.2-1,2.2-2.2
			C44.9,74.5,43.9,73.6,42.8,73.6z"/>
		<path d="M76,19.5H55.2c-1.2,0-2.2,1-2.2,2.2s1,2.2,2.2,2.2h18.6v18.6c0,1.2,1,2.2,2.2,2.2s2.2-1,2.2-2.2V21.7
			C78.2,20.5,77.2,19.5,76,19.5z"/>
	</g>
	<path class="st1" d="M59,23.6H39c-8.3,0-15.1,6.8-15.1,15.1v20c0,8.3,6.8,15.1,15.1,15.1h20c8.3,0,15.1-6.8,15.1-15.1v-20
		C74.1,30.4,67.3,23.6,59,23.6z M69.8,38.7v7.8H51.2V27.9H59C64.9,27.9,69.8,32.8,69.8,38.7z M28.2,58.7v-20c0-6,4.8-10.8,10.8-10.8
		h7.8v41.6H39C33.1,69.5,28.2,64.6,28.2,58.7z M59,69.5h-7.8V50.9h18.6v7.8C69.8,64.6,64.9,69.5,59,69.5z"/>
	<path class="st1" d="M65.4,35.1C58,35.1,51.9,41.4,49,45c-2.9-3.6-9-9.9-16.4-9.9c-7.5,0-13.6,6.1-13.6,13.6s6.1,13.6,13.6,13.6
		c7.4,0,13.5-6.3,16.4-9.9c2.9,3.6,9,9.9,16.4,9.9c7.5,0,13.6-6.1,13.6-13.6S72.9,35.1,65.4,35.1z M32.6,58c-5.1,0-9.3-4.2-9.3-9.3
		s4.2-9.3,9.3-9.3c6.2,0,11.7,6.6,13.7,9.3C43.9,52.1,38.3,58,32.6,58z M65.4,58c-6.2,0-11.7-6.5-13.7-9.3c2-2.7,7.5-9.3,13.7-9.3
		c5.1,0,9.3,4.2,9.3,9.3S70.5,58,65.4,58z"/>
	<g class="st1">
		<path d="M49,3.4C24,3.4,3.7,23.7,3.7,48.7S24,94,49,94s45.3-20.3,45.3-45.3S74,3.4,49,3.4z M49,88.6c-22,0-39.9-17.9-39.9-39.9
			S27,8.8,49,8.8s39.9,17.9,39.9,39.9S71,88.6,49,88.6z"/>
		<path d="M66.6,51L48.7,40.2l0,0l3.6-23.9c0.2-1.4-1.7-2.1-2.4-0.9L31,44.6c-0.4,0.6-0.2,1.5,0.4,1.9l17.8,10.8l0,0l-3.6,23.9
			c-0.2,1.4,1.7,2.1,2.4,0.9l19-29.3C67.4,52.2,67.2,51.3,66.6,51z"/>
	</g>
	<g class="st1">
		<circle cx="49" cy="26.4" r="6.4"/>
		<circle cx="49" cy="48.7" r="6.4"/>
		<circle cx="49" cy="71" r="6.4"/>
	</g>
	<g class="st1">
		<path d="M32.2,44.6c-1.1-1.1-2.8-1.1-3.8,0l-8.8,8.8c-0.2-1.5-0.4-3-0.4-4.6c0-16.4,13.3-29.7,29.7-29.7c4.7,0,9.2,1.1,13.4,3.2
			c1.3,0.7,3,0.1,3.6-1.2c0.7-1.3,0.1-3-1.2-3.6c-4.9-2.5-10.2-3.8-15.8-3.8c-19.3,0-35.1,15.7-35.1,35.1c0,1.8,0.1,3.6,0.4,5.4
			l-9.6-9.6c-1.1-1.1-2.8-1.1-3.8,0c-1.1,1.1-1.1,2.8,0,3.8l13.8,13.8c0.5,0.5,1.2,0.8,1.9,0.8s1.4-0.3,1.9-0.8l13.8-13.8
			C33.2,47.3,33.2,45.6,32.2,44.6z"/>
		<path d="M97.1,49L83.4,35.2c-1.1-1.1-2.8-1.1-3.8,0L65.8,49c-1.1,1.1-1.1,2.8,0,3.8c1.1,1.1,2.8,1.1,3.8,0l8.8-8.8
			c0.2,1.5,0.4,3,0.4,4.6c0,16.4-13.3,29.7-29.7,29.7c-4.7,0-9.2-1.1-13.4-3.2c-1.3-0.7-3-0.1-3.6,1.2c-0.7,1.3-0.1,3,1.2,3.6
			c4.9,2.5,10.3,3.8,15.9,3.8c19.3,0,35.1-15.7,35.1-35.1c0-1.8-0.1-3.6-0.4-5.4l9.6,9.6c0.5,0.5,1.2,0.8,1.9,0.8s1.4-0.3,1.9-0.8
			C98.2,51.8,98.2,50.1,97.1,49z"/>
	</g>
	<g class="st1">
		<rect x="66.7" y="44" width="9.5" height="9.5"/>
		<rect x="44.3" y="44" width="9.5" height="9.5"/>
		<rect x="21.9" y="44" width="9.5" height="9.5"/>
		<rect x="66.7" y="66.4" width="9.5" height="9.5"/>
		<rect x="44.3" y="66.4" width="9.5" height="9.5"/>
		<rect x="21.9" y="66.4" width="9.5" height="9.5"/>
		<rect x="66.7" y="21.6" width="9.5" height="9.5"/>
		<rect x="44.3" y="21.6" width="9.5" height="9.5"/>
		<rect x="21.9" y="21.6" width="9.5" height="9.5"/>
	</g>
	<g class="st1">
		<rect x="17.7" y="19.9" width="7.9" height="7.9"/>
		<rect x="17.7" y="44.8" width="7.9" height="7.9"/>
		<rect x="17.7" y="69.7" width="7.9" height="7.9"/>
		<rect x="32.1" y="22.3" width="48.2" height="2.9"/>
		<rect x="32.1" y="47.3" width="48.2" height="2.9"/>
		<rect x="32.1" y="72.2" width="48.2" height="2.9"/>
	</g>
	<g class="st1">
		<path d="M58.1,57.2H39.9c-2.9,0-5.3,2.4-5.3,5.4v4.2h3.2v-4.2c0-1.2,0.9-2.1,2-2.1H58c1.1,0,2,1,2,2.1v4.2h3.2v-4.2
			C63.4,59.6,61,57.2,58.1,57.2z"/>
		<path d="M49,53.7c4.6,0,8.4-3.8,8.4-8.4s-3.8-8.4-8.4-8.4s-8.4,3.8-8.4,8.4S44.4,53.7,49,53.7z M49,40.2c2.8,0,5.1,2.3,5.1,5.1
			s-2.3,5.1-5.1,5.1s-5.1-2.3-5.1-5.1S46.2,40.2,49,40.2z"/>
		<path d="M78.5,23h-18c-0.8,0-1.6-0.3-2.1-0.9l-6.2-6.2c-0.8-0.8-2-1.3-3.1-1.3s-2.3,0.5-3.1,1.3l-6.2,6.2
			c-0.6,0.6-1.3,0.9-2.1,0.9h-18c-4,0-7.3,3.3-7.3,7.3v45.4c0,4,3.3,7.3,7.3,7.3h59c4,0,7.3-3.3,7.3-7.3V30.2
			C85.8,26.2,82.5,23,78.5,23z M82.5,75.6c0,2.2-1.8,4-4,4h-59c-2.2,0-4-1.8-4-4V30.2c0-2.2,1.8-4,4-4h18c1.7,0,3.3-0.7,4.4-1.8
			l6.2-6.2c0.5-0.5,1.3-0.5,1.7,0l6.2,6.2c1.2,1.2,2.8,1.8,4.4,1.8h18c2.2,0,4,1.8,4,4L82.5,75.6L82.5,75.6z"/>
	</g>
</g>
<g>
	<g>
		<polygon class="st2" points="78.7,42.2 78.7,31.5 72.2,31.5 72.2,42.2 61.5,42.2 61.5,48.7 72.2,48.7 72.2,59.4 78.7,59.4 
			78.7,48.7 89.4,48.7 89.4,42.2 		"/>
		<circle class="st2" cx="41.4" cy="33.9" r="15.9"/>
		<path class="st2" d="M58.4,56.9H23.9c-8.5,0-15.4,6.9-15.4,15.4v3.9c0,1.8,1.5,3.3,3.3,3.3h58.6c1.8,0,3.3-1.5,3.3-3.3v-3.9
			C73.8,63.8,66.9,56.9,58.4,56.9z"/>
	</g>
</g>
</svg>
