<?xml version="1.0" encoding="utf-8"?>
<!-- Generator: Adobe Illustrator 21.1.0, SVG Export Plug-In . SVG Version: 6.00 Build 0)  -->
<svg version="1.1"
	 id="Layer_1" xmlns:cc="http://creativecommons.org/ns#" xmlns:dc="http://purl.org/dc/elements/1.1/" xmlns:inkscape="http://www.inkscape.org/namespaces/inkscape" xmlns:rdf="http://www.w3.org/1999/02/22-rdf-syntax-ns#" xmlns:sodipodi="http://sodipodi.sourceforge.net/DTD/sodipodi-0.dtd" xmlns:svg="http://www.w3.org/2000/svg"
	 xmlns="http://www.w3.org/2000/svg" xmlns:xlink="http://www.w3.org/1999/xlink" x="0px" y="0px" viewBox="0 0 90 66.2"
	 style="enable-background:new 0 0 90 66.2;" xml:space="preserve">
<style type="text/css">
	.st0{fill:#AAB5C7;}
</style>
<g transform="translate(0,-952.36216)">
	<path class="st0" d="M38.6,952.4L0,974.6l51.4,29.7L90,982.1L38.6,952.4z M40.7,961.4l3.7,2.2l-5.4,3.1l-3.7-2.2L40.7,961.4z
		 M48.2,965.7l3.7,2.2L39,975.3l-3.7-2.2L48.2,965.7L48.2,965.7z M31.9,966.5l3.7,2.2l-4.1,2.3l-3.7-2.2L31.9,966.5z M55.6,970
		l3.7,2.2L45,980.4l-3.7-2.2L55.6,970z M24.4,970.8l3.7,2.2l3.7,2.2l3.7,2.2l-8.7,5l-7.5-4.3l-3.7-2.2
		C15.6,975.8,24.4,970.8,24.4,970.8z M63.1,974.4l3.7,2.2l-5.9,3.4l-3.7-2.2L63.1,974.4z M70.6,978.7l3.7,2.2l-25,14.5l-3.7-2.2
		L70.6,978.7L70.6,978.7z M53.8,979.8l3.7,2.2l-15.7,9l-3.7-2.2L53.8,979.8z M3.6,980.1L0,982.2l51.4,29.7L90,989.6l-3.6-2.1
		l-34.9,20.2L3.6,980.1z M37.9,980.3l3.7,2.2l-7.3,4.2l-3.7-2.2C30.6,984.5,37.9,980.3,37.9,980.3z M3.6,986.8L0,988.9l51.4,29.7
		L90,996.3l-3.6-2.1l-34.9,20.2C51.4,1014.4,3.6,986.8,3.6,986.8z"/>
</g>
</svg>
