<?xml version="1.0" encoding="utf-8"?>
<!-- Generator: Adobe Illustrator 21.1.0, SVG Export Plug-In . SVG Version: 6.00 Build 0)  -->
<svg version="1.1" id="Layer_1" xmlns="http://www.w3.org/2000/svg" xmlns:xlink="http://www.w3.org/1999/xlink" x="0px" y="0px"
	 viewBox="0 0 32 32" style="enable-background:new 0 0 32 32;" xml:space="preserve">
<style type="text/css">
	.st0{fill:#FFD700;}
</style>
<rect x="5.8" y="6.8" width="22.5" height="18.3"/>
<g>
	<path class="st0" d="M0,4c0-2.2,1.8-4,4-4h24c2.2,0,4,1.8,4,4v24c0,2.2-1.8,4-4,4H4c-2.2,0-4-1.8-4-4V4 M26.3,9.6
		c-0.8-0.8-2.1-0.8-2.8,0l-9.8,9.8l-4.2-4.2c-0.8-0.8-2-0.8-2.8,0l0,0c-0.8,0.8-0.8,2.1,0,2.8l4.2,4.2l1.5,1.5
		c0.8,0.8,2.1,0.8,2.8,0l1.5-1.5l9.8-9.8C27.1,11.7,27.1,10.4,26.3,9.6L26.3,9.6"/>
</g>
</svg>
