<?xml version="1.0" encoding="utf-8"?>
<!-- Generator: Adobe Illustrator 21.1.0, SVG Export Plug-In . SVG Version: 6.00 Build 0)  -->
<svg version="1.1" id="Layer_1" xmlns="http://www.w3.org/2000/svg" xmlns:xlink="http://www.w3.org/1999/xlink" x="0px" y="0px"
	 viewBox="0 0 19 19" style="enable-background:new 0 0 19 19;" xml:space="preserve">
<style type="text/css">
	.st0{fill:#596679;}
</style>
<g transform="translate(-30 -1820)">
	<path class="st0" d="M39.5,1820c-5.2,0-9.5,4.3-9.5,9.5s4.3,9.5,9.5,9.5s9.5-4.3,9.5-9.5S44.7,1820,39.5,1820z M39.5,1838
		c-4.7,0-8.5-3.8-8.5-8.5c0-2.7,1.3-5.1,3.3-6.7c-0.5,1.6-0.7,4.1,0.8,5.2c2.6,1.9,4.3,1.9,4.1,2.9s-0.3,2.4,0.8,3s-0.9,3.2-0.5,3.2
		c2,0.1,5-2.1,5.5-3.1c0.4-0.9,1.5-2.2,0.5-2.5s-3-1.1-3.8-1.9s-1.4,0-2-0.1s-2.3-0.7-2.2-1.1c0.2-0.3,0.2-0.7-0.2-0.7
		s-1.5,1.1-1-1.1s2,0,2.2,0.4c0.2,0.3,0.3-1.6,1.3-2.1s2.5-1,2-1.5s-2-1.3-1.9-1.8c0-0.1,0-0.4-0.1-0.6c4.5,0.2,8.1,3.9,8.1,8.5
		C48,1834.2,44.2,1838,39.5,1838z"/>
</g>
</svg>
